<!DOCTYPE svg PUBLIC "-//W3C//DTD SVG 20010904//EN" "http://www.w3.org/TR/2001/REC-SVG-20010904/DTD/svg10.dtd">
<svg version="1.0" xmlns="http://www.w3.org/2000/svg" width="396px" height="532px" viewBox="0 0 3960 5320" preserveAspectRatio="xMidYMid meet">
<g id="layer101" fill="#374e22" stroke="none">
 <path d="M1980 5038 c-50 -25 -250 -217 -250 -241 0 -8 -7 -20 -16 -28 -24 -20 -64 -105 -64 -137 0 -22 11 -38 48 -69 26 -22 70 -64 97 -93 28 -29 61 -64 76 -79 14 -14 40 -47 57 -73 18 -26 37 -50 43 -54 6 -3 40 -8 76 -10 63 -3 68 -1 95 28 16 17 45 56 65 85 19 30 80 95 135 145 101 95 119 124 99 161 -61 111 -86 148 -153 220 -79 87 -195 167 -240 167 -13 0 -43 -10 -68 -22z m150 -71 c58 -35 188 -175 219 -237 9 -19 25 -47 35 -62 l18 -27 -130 -128 c-71 -70 -133 -139 -137 -153 -13 -45 -33 -60 -62 -47 -18 8 -29 8 -43 0 -14 -10 -22 -7 -44 16 -14 15 -26 32 -26 39 0 6 -9 16 -21 22 -11 7 -27 27 -35 46 -8 20 -30 44 -49 55 -18 11 -45 36 -60 55 -14 19 -42 41 -61 49 -44 18 -51 38 -25 71 12 15 21 31 21 36 0 16 91 130 156 195 34 34 80 71 102 82 23 11 43 25 47 31 4 7 12 7 23 -1 9 -5 42 -25 72 -42z"/>
 <path d="M1243 4452 c-152 -137 -249 -353 -260 -575 -6 -132 0 -151 60 -160 41 -6 122 -34 169 -58 20 -11 43 -19 50 -19 7 0 30 -11 50 -25 20 -14 51 -25 67 -25 35 0 44 13 78 110 13 36 32 76 42 90 10 14 26 41 36 60 25 48 66 99 158 195 46 49 77 90 77 103 0 29 -87 134 -162 194 -35 28 -80 65 -101 83 -42 36 -138 75 -183 75 -20 -1 -45 -15 -81 -48z m157 -23 c19 -8 39 -20 43 -26 4 -7 13 -13 18 -13 24 0 181 -132 214 -179 15 -23 34 -41 41 -41 28 0 13 -38 -25 -64 -57 -40 -160 -157 -205 -234 -79 -136 -90 -158 -95 -191 -8 -44 -21 -48 -59 -16 -16 14 -37 25 -46 25 -9 0 -34 9 -56 20 -22 11 -44 20 -50 20 -5 0 -29 9 -53 19 -23 11 -53 21 -67 23 -23 3 -26 8 -30 58 -3 32 -1 66 6 80 6 14 15 52 19 85 6 58 44 185 70 235 7 14 27 38 44 54 17 17 31 33 31 38 0 10 21 34 75 89 43 43 56 45 125 18z"/>
 <path d="M2651 4460 c-134 -74 -265 -192 -312 -283 -24 -45 -27 -39 81 -148 77 -79 114 -124 139 -169 53 -94 100 -192 105 -218 4 -16 16 -38 27 -48 18 -16 23 -15 122 33 56 28 138 61 182 73 44 12 91 32 104 44 23 20 23 24 17 128 -6 106 -46 269 -83 342 -39 78 -127 197 -177 239 -71 61 -103 62 -205 7z m199 -70 c33 -34 60 -65 60 -71 0 -6 11 -25 24 -42 68 -90 130 -294 128 -417 -2 -68 -5 -74 -78 -101 -108 -41 -158 -65 -173 -83 -7 -9 -24 -16 -38 -16 -13 0 -33 -4 -43 -10 -13 -7 -19 -6 -24 6 -3 9 -3 20 0 25 3 6 1 16 -5 23 -6 7 -17 30 -25 52 -20 59 -123 213 -178 267 -10 10 -18 22 -18 26 0 5 -22 25 -50 45 -27 20 -50 41 -50 47 0 28 176 214 213 225 12 3 31 14 42 24 43 37 110 70 132 65 12 -3 49 -32 83 -65z"/>
 <path d="M1992 4009 c-52 -26 -228 -196 -268 -259 -52 -81 -81 -147 -109 -249 -26 -94 -27 -101 -12 -123 9 -13 39 -54 67 -93 65 -90 114 -187 151 -300 31 -92 51 -125 76 -125 8 0 46 14 84 31 l70 30 69 -32 c65 -30 71 -31 93 -16 16 11 35 45 57 109 46 128 79 189 177 327 59 83 61 94 34 196 -40 150 -110 272 -213 372 -59 58 -195 153 -218 153 -8 0 -35 -10 -58 -21z m135 -76 c85 -66 243 -247 243 -277 0 -6 11 -31 24 -56 27 -53 58 -183 49 -207 -6 -15 -70 -107 -122 -175 -12 -14 -21 -31 -21 -37 0 -5 -13 -38 -29 -73 -40 -88 -58 -129 -66 -155 -8 -29 -40 -30 -80 -3 -40 27 -91 25 -160 -5 -32 -14 -60 -23 -63 -20 -9 9 -32 78 -32 97 0 22 -86 193 -105 208 -7 6 -19 25 -26 43 -7 18 -28 48 -46 67 -19 19 -37 46 -40 59 -15 61 64 264 132 340 19 21 35 42 35 46 0 11 117 123 165 157 49 36 88 33 142 -9z"/>
 <path d="M3215 3533 c-64 -9 -160 -34 -224 -60 -71 -28 -184 -97 -215 -132 -11 -11 -25 -21 -32 -21 -7 0 -23 -14 -36 -30 -13 -17 -38 -49 -57 -73 -108 -134 -200 -329 -218 -459 -5 -36 -2 -41 58 -95 34 -32 91 -86 126 -121 88 -87 98 -89 213 -52 110 35 195 53 372 79 70 10 134 24 143 31 15 12 56 96 80 162 21 58 47 266 40 323 -23 190 -82 352 -152 416 -32 30 -55 38 -98 32z m69 -59 c8 -3 25 -38 37 -77 12 -40 28 -79 35 -87 7 -9 21 -36 30 -60 25 -65 25 -308 1 -407 -23 -97 -60 -178 -89 -196 -12 -8 -63 -20 -113 -26 -82 -11 -272 -51 -415 -88 l-55 -14 -20 28 c-35 48 -154 153 -173 153 -15 0 -32 33 -32 61 0 48 74 244 106 282 13 16 24 34 24 42 0 7 7 19 16 26 9 7 31 36 49 64 44 66 77 100 139 140 28 18 60 42 70 54 11 11 29 21 40 21 12 0 35 9 51 20 17 11 38 20 47 20 9 0 29 5 45 12 71 30 172 46 207 32z"/>
 <path d="M786 3509 c-35 -27 -103 -171 -128 -268 -44 -175 -28 -388 41 -536 10 -22 21 -50 25 -62 4 -12 21 -34 37 -48 26 -21 40 -25 97 -25 90 0 286 -39 432 -86 71 -22 101 -18 153 22 25 20 49 44 52 53 4 9 42 47 86 84 62 54 79 74 79 95 0 65 -22 151 -55 216 -19 38 -35 73 -35 78 0 22 -135 209 -187 259 -82 80 -208 162 -295 191 -130 45 -143 48 -210 48 -51 0 -71 -5 -92 -21z m169 -44 c44 -9 107 -29 141 -45 33 -17 65 -30 71 -30 5 0 18 -9 28 -20 10 -11 24 -20 31 -20 22 0 158 -120 171 -151 7 -16 17 -29 23 -29 6 0 15 -10 20 -22 6 -13 15 -32 22 -43 7 -11 23 -37 36 -58 13 -22 30 -57 38 -80 8 -23 20 -48 28 -57 7 -8 21 -49 31 -91 l18 -77 -68 -63 c-93 -86 -102 -95 -106 -105 -7 -16 -68 -54 -86 -54 -10 0 -27 6 -38 14 -11 7 -40 16 -65 18 -25 3 -90 17 -145 32 -55 14 -138 31 -185 36 -121 13 -142 21 -151 54 -4 15 -13 34 -20 42 -7 9 -16 37 -20 62 -4 26 -14 85 -23 132 -36 193 -12 330 97 536 20 40 33 41 152 19z"/>
 <path d="M2011 2673 c-19 -8 -84 -47 -145 -87 -119 -79 -249 -194 -328 -291 -27 -33 -54 -66 -60 -74 -12 -14 -82 -8 -103 9 -20 16 -224 81 -303 96 -228 43 -474 69 -504 53 -30 -16 -24 -97 22 -284 12 -49 25 -99 30 -110 45 -117 114 -259 136 -286 8 -8 14 -19 14 -23 0 -4 24 -42 54 -84 72 -102 190 -228 261 -277 31 -22 69 -50 85 -63 48 -38 281 -139 396 -171 60 -17 152 -36 204 -41 52 -6 111 -16 132 -22 32 -9 37 -15 42 -52 9 -59 -2 -201 -21 -271 -9 -33 -16 -93 -17 -132 -1 -72 -1 -73 39 -113 68 -68 127 -70 202 -5 30 26 45 49 57 87 34 116 49 225 50 357 l1 134 123 23 c141 26 210 47 367 113 274 115 494 328 639 619 64 129 88 190 117 302 12 47 28 99 35 117 19 44 18 143 -2 171 -15 22 -21 23 -83 17 -159 -16 -309 -35 -341 -44 -19 -5 -64 -14 -100 -20 -63 -10 -160 -38 -225 -65 -49 -20 -132 -46 -148 -46 -8 0 -26 17 -38 38 -68 110 -319 326 -470 403 -68 34 -82 37 -118 22z m66 -55 c24 -10 86 -49 231 -147 49 -33 169 -155 219 -222 56 -76 99 -111 127 -103 11 3 57 21 101 39 44 18 107 41 140 50 33 9 74 21 90 27 17 5 53 14 80 19 28 5 73 15 100 21 28 6 106 14 175 18 69 4 135 11 148 15 18 6 22 4 22 -13 0 -11 -6 -25 -14 -31 -8 -6 -15 -41 -19 -84 -3 -39 -12 -85 -21 -102 -9 -16 -16 -43 -16 -59 0 -15 -14 -56 -30 -91 -17 -35 -33 -78 -37 -97 -3 -18 -19 -48 -35 -66 -15 -18 -28 -38 -28 -44 0 -11 -49 -86 -123 -188 -51 -69 -180 -195 -227 -220 -9 -5 -36 -25 -59 -45 -24 -19 -50 -35 -58 -35 -8 0 -29 -11 -47 -25 -18 -14 -38 -25 -43 -25 -6 0 -24 -7 -39 -15 -16 -8 -36 -15 -45 -15 -9 0 -30 -7 -45 -15 -16 -8 -44 -15 -63 -15 -19 0 -43 -7 -53 -16 -10 -9 -53 -23 -95 -30 -132 -22 -181 -32 -201 -43 -17 -9 -19 -23 -19 -168 -1 -151 -9 -230 -35 -336 -20 -82 -92 -125 -153 -93 -58 32 -69 86 -35 186 16 48 21 91 23 214 2 143 0 156 -19 183 -20 27 -25 28 -120 31 -54 2 -103 7 -109 11 -5 5 -30 11 -55 15 -94 13 -394 122 -435 157 -11 9 -30 20 -42 24 -13 3 -23 10 -23 15 0 5 -26 26 -58 47 -65 42 -202 178 -241 238 -14 22 -43 62 -63 88 -21 27 -41 61 -45 75 -3 14 -23 56 -45 94 -21 37 -38 73 -38 80 0 7 -12 45 -26 83 -14 39 -30 90 -36 115 -5 25 -17 72 -25 105 -9 33 -18 75 -20 93 -5 32 -4 33 16 22 12 -6 70 -14 129 -16 59 -3 125 -9 147 -14 22 -6 69 -15 105 -20 36 -6 83 -17 105 -25 22 -8 48 -14 57 -15 9 0 63 -16 120 -36 216 -75 197 -70 226 -53 15 8 41 42 59 78 18 34 33 60 33 56 0 -4 30 22 68 58 37 36 85 79 107 96 22 16 54 41 71 55 18 14 34 26 38 26 3 0 28 16 54 35 49 35 101 65 114 65 4 0 20 -5 35 -12z"/>
 </g>
<g id="layer102" fill="#464941" stroke="none">
 <path d="M2030 5025 c-7 -8 -11 -15 -9 -16 38 -7 49 -7 54 1 3 5 -3 14 -14 19 -14 8 -22 7 -31 -4z"/>
 <path d="M1865 4910 c-4 -6 -3 -16 3 -22 6 -6 12 -6 17 2 4 6 3 16 -3 22 -6 6 -12 6 -17 -2z"/>
 <path d="M1685 4660 c-22 -25 -12 -56 26 -76 40 -20 54 -9 29 23 -11 14 -20 34 -20 44 0 27 -15 31 -35 9z"/>
 <path d="M2712 4460 c-43 -26 -33 -41 22 -34 24 4 52 2 64 -5 29 -15 40 5 16 29 -30 30 -65 33 -102 10z"/>
 <path d="M2846 4402 c-3 -5 11 -30 31 -55 35 -43 53 -51 53 -24 0 17 -77 90 -84 79z"/>
 <path d="M2107 4325 c-34 -43 -20 -54 18 -15 19 20 25 34 19 40 -6 6 -19 -3 -37 -25z"/>
 <path d="M1700 4171 c-5 -11 -10 -26 -10 -34 0 -8 -11 -26 -25 -40 -38 -37 -15 -41 39 -6 47 32 59 62 34 87 -17 17 -26 15 -38 -7z"/>
 <path d="M2372 4168 c-17 -17 -15 -32 8 -53 21 -19 23 -16 20 25 -2 32 -13 43 -28 28z"/>
 <path d="M1604 4046 c-13 -10 -16 -18 -9 -25 13 -13 59 15 50 30 -8 13 -18 11 -41 -5z"/>
 <path d="M1011 3896 c-9 -10 -9 -16 -1 -21 17 -10 37 12 24 25 -8 8 -15 6 -23 -4z"/>
 <path d="M2585 3890 c-10 -17 12 -37 25 -24 8 8 6 15 -4 23 -10 9 -16 9 -21 1z"/>
 <path d="M3064 3876 c-8 -21 3 -49 16 -41 5 3 10 15 10 25 0 25 -18 36 -26 16z"/>
 <path d="M1019 3829 c0 -2 -2 -14 -4 -25 -5 -25 28 -60 45 -49 8 5 4 15 -12 32 -13 13 -21 27 -20 30 2 2 1 7 -2 11 -3 3 -6 3 -7 1z"/>
 <path d="M2686 3681 c-8 -12 11 -61 22 -61 4 0 17 6 27 14 10 7 27 11 37 8 20 -5 61 25 52 39 -8 14 -36 10 -55 -7 -17 -15 -20 -15 -43 0 -29 19 -33 19 -40 7z"/>
 <path d="M1377 3659 c-22 -31 -9 -46 16 -20 15 15 18 24 10 32 -8 8 -15 4 -26 -12z"/>
 <path d="M806 3481 c-11 -12 -14 -21 -7 -25 13 -9 63 23 55 35 -9 15 -30 10 -48 -10z"/>
 <path d="M3225 3490 c-3 -5 7 -16 22 -24 16 -7 37 -23 47 -35 20 -22 36 -20 36 5 0 39 -86 84 -105 54z"/>
 <path d="M2437 3399 c-15 -35 -13 -54 4 -43 17 10 31 56 20 67 -6 6 -15 -2 -24 -24z"/>
 <path d="M1594 2817 c-3 -10 -4 -27 -1 -38 3 -12 2 -32 -3 -45 -12 -31 8 -44 27 -18 10 13 12 32 8 59 -7 47 -21 66 -31 42z"/>
 <path d="M2486 2721 c-7 -11 28 -43 37 -34 12 11 8 22 -12 33 -11 5 -22 6 -25 1z"/>
 <path d="M885 2621 c-7 -12 12 -24 25 -16 11 7 4 25 -10 25 -5 0 -11 -4 -15 -9z"/>
 <path d="M1205 2551 c-7 -12 12 -24 25 -16 11 7 4 25 -10 25 -5 0 -11 -4 -15 -9z"/>
 <path d="M2705 2521 c-7 -12 12 -24 25 -16 11 7 4 25 -10 25 -5 0 -11 -4 -15 -9z"/>
 <path d="M581 2357 c-16 -16 -14 -62 5 -77 13 -11 16 -10 20 7 3 11 17 26 31 32 28 13 24 20 -18 38 -20 9 -30 8 -38 0z"/>
 <path d="M3465 2346 c-20 -15 -20 -15 0 -22 11 -5 28 -17 37 -29 15 -18 17 -18 23 -3 20 51 -18 85 -60 54z"/>
 <path d="M1573 2307 c-18 -24 -32 -66 -24 -71 15 -10 51 25 51 49 0 28 -14 40 -27 22z"/>
 <path d="M2476 2312 c-3 -6 1 -15 8 -21 8 -7 17 -8 20 -3 3 6 -1 15 -8 21 -8 7 -17 8 -20 3z"/>
 <path d="M684 1926 c-3 -8 0 -24 6 -36 17 -31 34 -11 21 23 -12 30 -19 34 -27 13z"/>
 <path d="M3362 1848 c-15 -15 -16 -45 -2 -53 14 -9 36 43 24 55 -7 7 -14 6 -22 -2z"/>
 <path d="M1934 547 c-9 -25 26 -76 68 -100 29 -17 42 -20 64 -12 33 12 29 30 -6 27 -31 -4 -94 37 -98 63 -6 30 -20 41 -28 22z"/>
 </g>
<g id="layer103" fill="#486f22" stroke="none">
 <path d="M1986 4997 c-96 -51 -274 -256 -283 -326 -5 -35 0 -43 62 -114 36 -42 75 -79 86 -82 11 -4 26 -21 33 -38 8 -18 41 -61 74 -97 50 -55 61 -63 75 -52 9 7 26 10 40 7 20 -5 30 1 56 32 17 20 31 41 31 44 0 9 140 150 197 200 52 45 62 78 36 116 -10 15 -24 39 -31 53 -50 101 -194 235 -303 281 -9 4 -39 -6 -73 -24z"/>
 <path d="M1247 4405 c-37 -36 -67 -70 -67 -75 0 -5 -14 -24 -31 -42 -17 -18 -36 -44 -44 -58 -40 -76 -81 -246 -90 -372 -3 -49 0 -60 20 -82 13 -14 30 -26 38 -26 7 0 32 -9 55 -20 22 -11 46 -20 52 -20 6 0 28 -9 50 -20 22 -11 47 -20 56 -20 9 0 30 -12 47 -26 l31 -26 23 28 c13 16 23 35 23 42 0 24 102 200 159 275 20 26 59 71 87 100 64 67 72 99 36 151 -43 63 -224 209 -291 234 -78 30 -82 29 -154 -43z"/>
 <path d="M2692 4440 c-18 -4 -43 -17 -56 -29 -12 -11 -27 -21 -32 -21 -18 0 -123 -87 -159 -132 -19 -23 -42 -50 -50 -59 -27 -28 -19 -78 18 -110 45 -41 41 -36 113 -124 64 -78 78 -101 116 -180 40 -85 57 -111 82 -129 24 -18 27 -19 44 -3 10 9 26 17 34 17 9 0 38 10 65 22 26 11 82 33 123 48 72 26 75 29 83 66 19 91 -11 256 -68 379 -37 79 -154 229 -196 251 -30 15 -65 16 -117 4z"/>
 <path d="M1981 3958 c-24 -18 -55 -41 -69 -50 -14 -9 -31 -26 -36 -36 -6 -11 -26 -32 -43 -47 -18 -15 -33 -31 -33 -37 0 -5 -13 -22 -28 -38 -58 -57 -142 -256 -142 -333 0 -13 19 -49 43 -79 48 -64 64 -89 129 -207 26 -48 47 -94 48 -104 0 -32 32 -119 45 -123 7 -3 38 6 70 20 70 31 117 33 161 5 60 -37 78 -25 120 76 9 22 29 68 45 103 16 35 29 69 29 77 0 8 4 16 9 19 14 9 111 154 125 188 11 25 10 42 -4 101 -9 40 -26 90 -38 112 -12 22 -22 44 -22 50 0 20 -98 144 -162 207 -142 137 -176 150 -247 96z"/>
 <path d="M825 3480 c-79 -51 -155 -262 -155 -430 0 -30 7 -93 16 -140 9 -47 19 -105 23 -130 4 -25 15 -57 24 -70 9 -13 17 -32 17 -41 0 -9 8 -23 18 -31 18 -16 108 -42 120 -34 9 5 123 -16 254 -48 59 -14 118 -26 130 -26 13 0 32 -7 42 -15 27 -21 50 -19 88 8 39 26 202 195 210 217 9 24 -12 154 -27 170 -8 9 -21 34 -29 57 -8 23 -25 58 -38 80 -13 21 -29 47 -36 58 -7 11 -17 32 -23 48 -6 15 -20 32 -30 38 -10 5 -19 16 -19 23 0 16 -165 156 -184 156 -7 0 -21 9 -31 20 -10 11 -23 20 -28 20 -6 0 -38 13 -71 30 -50 24 -189 60 -231 60 -5 0 -23 -9 -40 -20z"/>
 <path d="M3150 3486 c-25 -7 -58 -18 -73 -24 -16 -7 -36 -12 -45 -12 -9 0 -30 -9 -47 -20 -16 -11 -39 -20 -51 -20 -11 0 -29 -10 -40 -21 -10 -12 -44 -37 -74 -57 -64 -41 -109 -87 -155 -157 -18 -28 -40 -57 -49 -64 -9 -7 -16 -19 -16 -26 0 -8 -11 -26 -24 -42 -21 -25 -64 -126 -95 -224 -22 -69 -16 -83 60 -148 38 -34 74 -61 79 -61 4 0 24 -22 44 -50 31 -43 41 -50 69 -50 19 0 47 4 63 9 65 20 305 71 393 83 112 15 142 34 177 115 43 96 59 187 59 338 0 144 -16 227 -50 255 -8 7 -17 27 -21 45 -8 44 -46 95 -92 122 -41 25 -47 26 -112 9z"/>
 <path d="M2006 2635 c-16 -9 -51 -31 -78 -50 -26 -19 -51 -35 -54 -35 -4 0 -21 -12 -39 -27 -19 -16 -55 -44 -82 -63 -63 -46 -173 -157 -173 -174 0 -8 -12 -27 -27 -43 -16 -16 -36 -39 -45 -51 -23 -28 -43 -28 -125 4 -90 34 -214 74 -233 74 -8 1 -33 7 -55 15 -22 8 -69 19 -105 25 -36 5 -83 14 -105 20 -22 5 -83 11 -135 13 -138 6 -178 -21 -158 -103 5 -19 13 -59 18 -89 5 -30 18 -77 29 -105 11 -28 32 -82 47 -121 14 -38 36 -88 47 -110 12 -22 26 -54 33 -72 6 -17 26 -51 45 -74 19 -23 43 -57 54 -75 36 -58 156 -184 224 -235 36 -27 78 -60 94 -74 15 -14 33 -25 39 -25 6 0 21 -8 32 -18 40 -36 340 -144 436 -158 25 -4 50 -10 55 -15 6 -4 55 -9 109 -11 l99 -3 13 -30 c20 -48 9 -292 -17 -378 -23 -78 -19 -119 15 -155 54 -60 122 -65 173 -13 48 47 74 190 76 408 0 85 4 156 9 159 9 6 75 19 191 38 42 7 85 21 95 30 10 9 34 16 53 16 19 0 47 7 63 15 15 8 36 15 45 15 9 0 29 7 45 15 15 8 33 15 39 15 5 0 25 11 43 25 18 14 39 25 47 25 8 0 41 20 73 45 31 25 61 45 64 45 13 0 200 185 200 198 0 6 4 12 9 12 5 0 18 15 29 33 12 17 37 55 57 82 20 28 45 68 55 90 11 22 24 47 29 55 13 20 57 119 65 147 4 11 13 27 21 33 8 7 15 29 15 49 0 20 9 62 20 94 11 31 20 78 20 105 0 26 4 52 10 58 6 6 4 18 -7 33 -16 23 -18 23 -157 19 -78 -3 -161 -10 -186 -16 -25 -7 -67 -16 -95 -21 -27 -5 -63 -14 -80 -19 -16 -6 -57 -18 -90 -27 -33 -9 -96 -32 -140 -50 -125 -52 -121 -52 -163 -7 -20 22 -53 59 -72 83 -48 61 -173 184 -214 211 -184 124 -241 158 -264 158 -4 0 -20 -7 -36 -15z"/>
 </g>

</svg>